<svg viewBox="0 0 1000 1000" xmlns="http://www.w3.org/2000/svg" fill-rule="evenodd" clip-rule="evenodd" stroke-linejoin="round" stroke-miterlimit="2"><circle cx="436.262" cy="493.725" r="310.106" fill="#ebebeb"/><circle cx="664.795" cy="648.283" r="252.642" fill="#d70505"/><path d="M132.098 97.387v-5.05h4.4v5.05h-4.4zm0 30.75v-25.95h4.4v25.95h-4.4zm11.108 0v-25.95h3.95v3.65c.8-1.25 1.85-2.3 3.2-3.05 1.35-.8 2.9-1.15 4.65-1.15 1.9 0 3.5.4 4.7 1.2 1.25.8 2.1 1.9 2.6 3.35 2.05-3.05 4.75-4.55 8-4.55 2.6 0 4.55.7 5.95 2.1 1.4 1.45 2.1 3.65 2.1 6.6v17.8h-4.4v-16.35c0-1.75-.15-3-.4-3.8-.3-.75-.8-1.4-1.55-1.85-.75-.45-1.65-.7-2.65-.7-1.85 0-3.35.6-4.55 1.8-1.2 1.25-1.8 3.15-1.8 5.85v15.05h-4.4v-16.85c0-1.95-.35-3.4-1.05-4.4-.75-.95-1.9-1.45-3.55-1.45-1.25 0-2.35.3-3.4.95-1.05.65-1.85 1.6-2.3 2.9-.45 1.25-.7 3.05-.7 5.4v13.45h-4.4zm40.851 2.15l4.25.65c.2 1.3.7 2.25 1.5 2.85 1.1.85 2.6 1.25 4.45 1.25 2.05 0 3.6-.4 4.75-1.25 1.1-.8 1.85-1.95 2.25-3.4.2-.9.3-2.8.3-5.65-1.95 2.25-4.3 3.4-7.2 3.4-3.55 0-6.3-1.3-8.25-3.85-1.95-2.6-2.95-5.65-2.95-9.25 0-2.5.45-4.75 1.35-6.85.9-2.1 2.2-3.7 3.9-4.85 1.7-1.15 3.7-1.7 6-1.7 3.05 0 5.55 1.2 7.55 3.7v-3.15h4.05v22.45c0 4-.4 6.9-1.2 8.55-.85 1.7-2.15 3.05-3.95 4-1.75 1-3.95 1.45-6.55 1.45-3.1 0-5.6-.65-7.5-2.05-1.9-1.4-2.8-3.5-2.75-6.3zm3.65-15.6c0 3.4.65 5.9 2 7.45 1.35 1.6 3.05 2.35 5.1 2.35 2 0 3.7-.75 5.05-2.3 1.4-1.55 2.05-4 2.05-7.35 0-3.15-.7-5.55-2.1-7.15-1.4-1.6-3.1-2.45-5.1-2.45-1.95 0-3.6.8-4.95 2.4-1.4 1.6-2.05 3.95-2.05 7.05zm26.207 8.45h5v5h-5zm10.892-2.75l4.35-.65c.25 1.7.9 3.05 2 4 1.15.9 2.7 1.35 4.7 1.35s3.5-.4 4.5-1.2c.95-.85 1.45-1.8 1.45-2.9 0-1-.45-1.8-1.3-2.35-.6-.4-2.1-.9-4.5-1.5-3.2-.8-5.45-1.5-6.7-2.1-1.25-.6-2.15-1.4-2.8-2.45-.65-1.05-1-2.2-1-3.5 0-1.15.3-2.2.8-3.2.55-1 1.25-1.8 2.15-2.45.7-.5 1.65-.95 2.8-1.3 1.2-.35 2.45-.5 3.8-.5 2.05 0 3.85.3 5.4.85 1.5.6 2.65 1.4 3.4 2.4.7 1 1.2 2.35 1.5 4l-4.3.6c-.2-1.35-.75-2.4-1.7-3.15s-2.25-1.1-3.95-1.1c-2.05 0-3.45.35-4.35 1-.85.65-1.3 1.45-1.3 2.35 0 .55.2 1.1.55 1.55.35.45.95.85 1.7 1.15.45.15 1.7.55 3.85 1.15 3.15.8 5.3 1.5 6.55 2 1.2.55 2.15 1.3 2.85 2.3.7 1.05 1.05 2.3 1.05 3.8 0 1.45-.4 2.85-1.25 4.1-.85 1.3-2.1 2.3-3.7 3-1.6.75-3.45 1.1-5.5 1.1-3.35 0-5.9-.7-7.7-2.1-1.75-1.4-2.85-3.5-3.35-6.25zm33.95 7.75l-9.85-25.95h4.6l5.6 15.55c.6 1.7 1.15 3.4 1.65 5.2.4-1.35.95-3 1.65-4.9l5.75-15.85h4.5l-9.8 25.95h-4.1zm17 2.15l4.25.65c.2 1.3.7 2.25 1.5 2.85 1.1.85 2.6 1.25 4.45 1.25 2.05 0 3.6-.4 4.75-1.25 1.1-.8 1.85-1.95 2.25-3.4.2-.9.3-2.8.3-5.65-1.95 2.25-4.3 3.4-7.2 3.4-3.55 0-6.3-1.3-8.25-3.85-1.95-2.6-2.95-5.65-2.95-9.25 0-2.5.45-4.75 1.35-6.85.9-2.1 2.2-3.7 3.9-4.85 1.7-1.15 3.7-1.7 6-1.7 3.05 0 5.55 1.2 7.55 3.7v-3.15h4.05v22.45c0 4-.4 6.9-1.2 8.55-.85 1.7-2.15 3.05-3.95 4-1.75 1-3.95 1.45-6.55 1.45-3.1 0-5.6-.65-7.5-2.05-1.9-1.4-2.8-3.5-2.75-6.3zm3.65-15.6c0 3.4.65 5.9 2 7.45 1.35 1.6 3.05 2.35 5.1 2.35 2 0 3.7-.75 5.05-2.3 1.4-1.55 2.05-4 2.05-7.35 0-3.15-.7-5.55-2.1-7.15-1.4-1.6-3.1-2.45-5.1-2.45-1.95 0-3.6.8-4.95 2.4-1.4 1.6-2.05 3.95-2.05 7.05z" fill-rule="nonzero"/></svg>