<svg viewBox="0 0 1000 1000" xmlns="http://www.w3.org/2000/svg" xml:space="preserve" style="fill-rule:evenodd;clip-rule:evenodd;stroke-linejoin:round;stroke-miterlimit:2"><circle cx="436.262" cy="493.725" r="310.106" style="fill:#ebebeb"/><circle cx="664.795" cy="648.283" r="252.642" style="fill:#d70505"/><path d="M.066-.615v-.101h.088v.101H.066zm0 .615v-.519h.088V0H.066z" style="fill-rule:nonzero" transform="matrix(50 0 0 50 128.798 128.137)"/><path d="M.066 0v-.519h.079v.073A.178.178 0 0 1 .302-.53c.038 0 .07.008.094.024a.125.125 0 0 1 .052.067.186.186 0 0 1 .16-.091c.052 0 .091.014.119.042.028.029.042.073.042.132V0H.681v-.327a.272.272 0 0 0-.008-.076.074.074 0 0 0-.031-.037.102.102 0 0 0-.053-.014.123.123 0 0 0-.091.036c-.024.025-.036.063-.036.117V0H.374v-.337a.152.152 0 0 0-.021-.088C.338-.444.315-.454.282-.454a.125.125 0 0 0-.068.019.108.108 0 0 0-.046.058.332.332 0 0 0-.014.108V0H.066z" style="fill-rule:nonzero" transform="matrix(50 0 0 50 139.906 128.137)"/><path d="m.05.043.085.013c.004.026.014.045.03.057a.142.142 0 0 0 .089.025.156.156 0 0 0 .095-.025.121.121 0 0 0 .045-.068A.659.659 0 0 0 .4-.068.182.182 0 0 1 .256 0a.196.196 0 0 1-.165-.077.299.299 0 0 1-.059-.185c0-.05.009-.095.027-.137a.216.216 0 0 1 .078-.097.209.209 0 0 1 .12-.034c.061 0 .111.024.151.074v-.063h.081v.449c0 .08-.008.138-.024.171a.18.18 0 0 1-.079.08.262.262 0 0 1-.131.029.247.247 0 0 1-.15-.041C.067.141.049.099.05.043zm.073-.312c0 .068.013.118.04.149a.127.127 0 0 0 .102.047c.04 0 .074-.015.101-.046.028-.031.041-.08.041-.147 0-.063-.014-.111-.042-.143a.132.132 0 0 0-.102-.049.125.125 0 0 0-.099.048c-.028.032-.041.079-.041.141z" style="fill-rule:nonzero" transform="matrix(50 0 0 50 181.557 128.137)"/><path style="fill-rule:nonzero" d="M.091-.1h.1V0h-.1z" transform="matrix(50 0 0 50 209.364 128.137)"/><path d="m.031-.155.087-.013a.126.126 0 0 0 .04.08.148.148 0 0 0 .094.027c.04 0 .07-.008.09-.024a.076.076 0 0 0 .029-.058.054.054 0 0 0-.026-.047.366.366 0 0 0-.09-.03.804.804 0 0 1-.134-.042.128.128 0 0 1-.076-.119.141.141 0 0 1 .059-.113A.195.195 0 0 1 .16-.52a.322.322 0 0 1 .184.007c.03.012.053.028.068.048.014.02.024.047.03.08l-.086.012a.094.094 0 0 0-.034-.063.124.124 0 0 0-.079-.022c-.041 0-.069.007-.087.02C.139-.425.13-.409.13-.391c0 .011.004.022.011.031a.081.081 0 0 0 .034.023l.077.023c.063.016.106.03.131.04a.137.137 0 0 1 .057.046.133.133 0 0 1 .021.076.144.144 0 0 1-.025.082.165.165 0 0 1-.074.06.257.257 0 0 1-.11.022.246.246 0 0 1-.154-.042.199.199 0 0 1-.067-.125z" style="fill-rule:nonzero" transform="matrix(50 0 0 50 223.256 128.137)"/><path d="M.21 0 .013-.519h.092l.112.311c.012.034.023.068.033.104.008-.027.019-.06.033-.098l.115-.317h.09L.292 0H.21z" style="fill-rule:nonzero" transform="matrix(50 0 0 50 248.256 128.137)"/><path d="m.05.043.085.013c.004.026.014.045.03.057a.142.142 0 0 0 .089.025.156.156 0 0 0 .095-.025.121.121 0 0 0 .045-.068A.659.659 0 0 0 .4-.068.182.182 0 0 1 .256 0a.196.196 0 0 1-.165-.077.299.299 0 0 1-.059-.185c0-.05.009-.095.027-.137a.216.216 0 0 1 .078-.097.209.209 0 0 1 .12-.034c.061 0 .111.024.151.074v-.063h.081v.449c0 .08-.008.138-.024.171a.18.18 0 0 1-.079.08.262.262 0 0 1-.131.029.247.247 0 0 1-.15-.041C.067.141.049.099.05.043zm.073-.312c0 .068.013.118.04.149a.127.127 0 0 0 .102.047c.04 0 .074-.015.101-.046.028-.031.041-.08.041-.147 0-.063-.014-.111-.042-.143a.132.132 0 0 0-.102-.049.125.125 0 0 0-.099.048c-.028.032-.041.079-.041.141z" style="fill-rule:nonzero" transform="matrix(50 0 0 50 273.256 128.137)"/></svg>