<?xml version="1.0" encoding="UTF-8" standalone="no"?>
<!DOCTYPE svg PUBLIC "-//W3C//DTD SVG 1.1//EN" "http://www.w3.org/Graphics/SVG/1.1/DTD/svg11.dtd">
<svg width="100%" height="100%" viewBox="0 0 1000 1000" version="1.1" xmlns="http://www.w3.org/2000/svg" xmlns:xlink="http://www.w3.org/1999/xlink" xml:space="preserve" xmlns:serif="http://www.serif.com/" style="fill-rule:evenodd;clip-rule:evenodd;stroke-linejoin:round;stroke-miterlimit:2;">
    <circle cx="436.262" cy="493.725" r="310.106" style="fill:rgb(235,235,235);"/>
    <circle cx="664.795" cy="648.283" r="252.642" style="fill:rgb(215,5,5);"/>
    <g>
        <g transform="matrix(50,0,0,50,128.798,128.137)">
            <path d="M0.066,-0.615L0.066,-0.716L0.154,-0.716L0.154,-0.615L0.066,-0.615ZM0.066,0L0.066,-0.519L0.154,-0.519L0.154,0L0.066,0Z" style="fill-rule:nonzero;"/>
        </g>
        <g transform="matrix(50,0,0,50,139.906,128.137)">
            <path d="M0.066,0L0.066,-0.519L0.145,-0.519L0.145,-0.446C0.161,-0.471 0.182,-0.492 0.209,-0.507C0.236,-0.523 0.267,-0.53 0.302,-0.53C0.34,-0.53 0.372,-0.522 0.396,-0.506C0.421,-0.49 0.438,-0.468 0.448,-0.439C0.489,-0.5 0.543,-0.53 0.608,-0.53C0.66,-0.53 0.699,-0.516 0.727,-0.488C0.755,-0.459 0.769,-0.415 0.769,-0.356L0.769,0L0.681,0L0.681,-0.327C0.681,-0.362 0.678,-0.387 0.673,-0.403C0.667,-0.418 0.657,-0.431 0.642,-0.44C0.627,-0.449 0.609,-0.454 0.589,-0.454C0.552,-0.454 0.522,-0.442 0.498,-0.418C0.474,-0.393 0.462,-0.355 0.462,-0.301L0.462,0L0.374,0L0.374,-0.337C0.374,-0.376 0.367,-0.405 0.353,-0.425C0.338,-0.444 0.315,-0.454 0.282,-0.454C0.257,-0.454 0.235,-0.448 0.214,-0.435C0.193,-0.422 0.177,-0.403 0.168,-0.377C0.159,-0.352 0.154,-0.316 0.154,-0.269L0.154,0L0.066,0Z" style="fill-rule:nonzero;"/>
        </g>
        <g transform="matrix(50,0,0,50,181.557,128.137)">
            <path d="M0.05,0.043L0.135,0.056C0.139,0.082 0.149,0.101 0.165,0.113C0.187,0.13 0.217,0.138 0.254,0.138C0.295,0.138 0.326,0.13 0.349,0.113C0.371,0.097 0.386,0.074 0.394,0.045C0.398,0.027 0.4,-0.011 0.4,-0.068C0.361,-0.023 0.314,0 0.256,0C0.185,0 0.13,-0.026 0.091,-0.077C0.052,-0.129 0.032,-0.19 0.032,-0.262C0.032,-0.312 0.041,-0.357 0.059,-0.399C0.077,-0.441 0.103,-0.473 0.137,-0.496C0.171,-0.519 0.211,-0.53 0.257,-0.53C0.318,-0.53 0.368,-0.506 0.408,-0.456L0.408,-0.519L0.489,-0.519L0.489,-0.07C0.489,0.01 0.481,0.068 0.465,0.101C0.448,0.135 0.422,0.162 0.386,0.181C0.351,0.201 0.307,0.21 0.255,0.21C0.193,0.21 0.143,0.197 0.105,0.169C0.067,0.141 0.049,0.099 0.05,0.043ZM0.123,-0.269C0.123,-0.201 0.136,-0.151 0.163,-0.12C0.19,-0.088 0.224,-0.073 0.265,-0.073C0.305,-0.073 0.339,-0.088 0.366,-0.119C0.394,-0.15 0.407,-0.199 0.407,-0.266C0.407,-0.329 0.393,-0.377 0.365,-0.409C0.337,-0.441 0.303,-0.458 0.263,-0.458C0.224,-0.458 0.191,-0.442 0.164,-0.41C0.136,-0.378 0.123,-0.331 0.123,-0.269Z" style="fill-rule:nonzero;"/>
        </g>
        <g transform="matrix(50,0,0,50,209.364,128.137)">
            <rect x="0.091" y="-0.1" width="0.1" height="0.1" style="fill-rule:nonzero;"/>
        </g>
        <g transform="matrix(50,0,0,50,223.256,128.137)">
            <path d="M0.031,-0.155L0.118,-0.168C0.123,-0.134 0.136,-0.107 0.158,-0.088C0.181,-0.07 0.212,-0.061 0.252,-0.061C0.292,-0.061 0.322,-0.069 0.342,-0.085C0.361,-0.102 0.371,-0.121 0.371,-0.143C0.371,-0.163 0.362,-0.179 0.345,-0.19C0.333,-0.198 0.303,-0.208 0.255,-0.22C0.191,-0.236 0.146,-0.25 0.121,-0.262C0.096,-0.274 0.078,-0.29 0.065,-0.311C0.052,-0.332 0.045,-0.355 0.045,-0.381C0.045,-0.404 0.051,-0.425 0.061,-0.445C0.072,-0.465 0.086,-0.481 0.104,-0.494C0.118,-0.504 0.137,-0.513 0.16,-0.52C0.184,-0.527 0.209,-0.53 0.236,-0.53C0.277,-0.53 0.313,-0.524 0.344,-0.513C0.374,-0.501 0.397,-0.485 0.412,-0.465C0.426,-0.445 0.436,-0.418 0.442,-0.385L0.356,-0.373C0.352,-0.4 0.341,-0.421 0.322,-0.436C0.303,-0.451 0.277,-0.458 0.243,-0.458C0.202,-0.458 0.174,-0.451 0.156,-0.438C0.139,-0.425 0.13,-0.409 0.13,-0.391C0.13,-0.38 0.134,-0.369 0.141,-0.36C0.148,-0.351 0.16,-0.343 0.175,-0.337C0.184,-0.334 0.209,-0.326 0.252,-0.314C0.315,-0.298 0.358,-0.284 0.383,-0.274C0.407,-0.263 0.426,-0.248 0.44,-0.228C0.454,-0.207 0.461,-0.182 0.461,-0.152C0.461,-0.123 0.453,-0.095 0.436,-0.07C0.419,-0.044 0.394,-0.024 0.362,-0.01C0.33,0.005 0.293,0.012 0.252,0.012C0.185,0.012 0.134,-0.002 0.098,-0.03C0.063,-0.058 0.041,-0.1 0.031,-0.155Z" style="fill-rule:nonzero;"/>
        </g>
        <g transform="matrix(50,0,0,50,248.256,128.137)">
            <path d="M0.21,0L0.013,-0.519L0.105,-0.519L0.217,-0.208C0.229,-0.174 0.24,-0.14 0.25,-0.104C0.258,-0.131 0.269,-0.164 0.283,-0.202L0.398,-0.519L0.488,-0.519L0.292,0L0.21,0Z" style="fill-rule:nonzero;"/>
        </g>
        <g transform="matrix(50,0,0,50,273.256,128.137)">
            <path d="M0.05,0.043L0.135,0.056C0.139,0.082 0.149,0.101 0.165,0.113C0.187,0.13 0.217,0.138 0.254,0.138C0.295,0.138 0.326,0.13 0.349,0.113C0.371,0.097 0.386,0.074 0.394,0.045C0.398,0.027 0.4,-0.011 0.4,-0.068C0.361,-0.023 0.314,0 0.256,0C0.185,0 0.13,-0.026 0.091,-0.077C0.052,-0.129 0.032,-0.19 0.032,-0.262C0.032,-0.312 0.041,-0.357 0.059,-0.399C0.077,-0.441 0.103,-0.473 0.137,-0.496C0.171,-0.519 0.211,-0.53 0.257,-0.53C0.318,-0.53 0.368,-0.506 0.408,-0.456L0.408,-0.519L0.489,-0.519L0.489,-0.07C0.489,0.01 0.481,0.068 0.465,0.101C0.448,0.135 0.422,0.162 0.386,0.181C0.351,0.201 0.307,0.21 0.255,0.21C0.193,0.21 0.143,0.197 0.105,0.169C0.067,0.141 0.049,0.099 0.05,0.043ZM0.123,-0.269C0.123,-0.201 0.136,-0.151 0.163,-0.12C0.19,-0.088 0.224,-0.073 0.265,-0.073C0.305,-0.073 0.339,-0.088 0.366,-0.119C0.394,-0.15 0.407,-0.199 0.407,-0.266C0.407,-0.329 0.393,-0.377 0.365,-0.409C0.337,-0.441 0.303,-0.458 0.263,-0.458C0.224,-0.458 0.191,-0.442 0.164,-0.41C0.136,-0.378 0.123,-0.331 0.123,-0.269Z" style="fill-rule:nonzero;"/>
        </g>
    </g>
</svg>
